<svg width="87" height="80" viewBox="0 0 87 80" fill="none" xmlns="http://www.w3.org/2000/svg">
<g opacity="0.3">
<mask id="mask0_1_11" style="mask-type:alpha" maskUnits="userSpaceOnUse" x="1" y="2" width="8" height="8">
<path d="M4.90962 9.97735C7.06885 9.97735 8.81925 8.19152 8.81925 5.98865C8.81925 3.78577 7.06885 2 4.90962 2C2.7504 2 1 3.78577 1 5.98865C1 8.19152 2.7504 9.97735 4.90962 9.97735Z" fill="url(#paint0_linear_1_11)"/>
</mask>
<g mask="url(#mask0_1_11)">
<path d="M4.90962 9.97735C7.06885 9.97735 8.81925 8.19152 8.81925 5.98865C8.81925 3.78577 7.06885 2 4.90962 2C2.7504 2 1 3.78577 1 5.98865C1 8.19152 2.7504 9.97735 4.90962 9.97735Z" fill="url(#paint1_linear_1_11)"/>
</g>
<mask id="mask1_1_11" style="mask-type:alpha" maskUnits="userSpaceOnUse" x="23" y="2" width="9" height="8">
<path d="M27.5525 9.97735C29.7117 9.97735 31.4621 8.19152 31.4621 5.98865C31.4621 3.78577 29.7117 2 27.5525 2C25.3933 2 23.6429 3.78577 23.6429 5.98865C23.6429 8.19152 25.3933 9.97735 27.5525 9.97735Z" fill="url(#paint2_linear_1_11)"/>
</mask>
<g mask="url(#mask1_1_11)">
<path d="M27.5529 9.97735C29.7121 9.97735 31.4625 8.19152 31.4625 5.98865C31.4625 3.78577 29.7121 2 27.5529 2C25.3937 2 23.6432 3.78577 23.6432 5.98865C23.6432 8.19152 25.3937 9.97735 27.5529 9.97735Z" fill="url(#paint3_linear_1_11)"/>
</g>
<mask id="mask2_1_11" style="mask-type:alpha" maskUnits="userSpaceOnUse" x="46" y="2" width="9" height="8">
<path d="M50.1953 9.97735C52.3546 9.97735 54.105 8.19152 54.105 5.98865C54.105 3.78577 52.3546 2 50.1953 2C48.0361 2 46.2857 3.78577 46.2857 5.98865C46.2857 8.19152 48.0361 9.97735 50.1953 9.97735Z" fill="url(#paint4_linear_1_11)"/>
</mask>
<g mask="url(#mask2_1_11)">
<path d="M50.196 9.97735C52.3552 9.97735 54.1056 8.19152 54.1056 5.98865C54.1056 3.78577 52.3552 2 50.196 2C48.0368 2 46.2864 3.78577 46.2864 5.98865C46.2864 8.19152 48.0368 9.97735 50.196 9.97735Z" fill="url(#paint5_linear_1_11)"/>
</g>
<mask id="mask3_1_11" style="mask-type:alpha" maskUnits="userSpaceOnUse" x="68" y="2" width="9" height="8">
<path d="M72.8382 9.97735C74.9974 9.97735 76.7478 8.19152 76.7478 5.98865C76.7478 3.78577 74.9974 2 72.8382 2C70.6789 2 68.9285 3.78577 68.9285 5.98865C68.9285 8.19152 70.6789 9.97735 72.8382 9.97735Z" fill="url(#paint6_linear_1_11)"/>
</mask>
<g mask="url(#mask3_1_11)">
<path d="M72.8388 9.97735C74.998 9.97735 76.7484 8.19152 76.7484 5.98865C76.7484 3.78577 74.998 2 72.8388 2C70.6795 2 68.9291 3.78577 68.9291 5.98865C68.9291 8.19152 70.6795 9.97735 72.8388 9.97735Z" fill="url(#paint7_linear_1_11)"/>
</g>
<mask id="mask4_1_11" style="mask-type:alpha" maskUnits="userSpaceOnUse" x="1" y="22" width="8" height="9">
<path d="M4.90962 30.0037C7.06885 30.0037 8.81925 28.2179 8.81925 26.015C8.81925 23.8122 7.06885 22.0264 4.90962 22.0264C2.7504 22.0264 1 23.8122 1 26.015C1 28.2179 2.7504 30.0037 4.90962 30.0037Z" fill="url(#paint8_linear_1_11)"/>
</mask>
<g mask="url(#mask4_1_11)">
<path d="M4.90962 30.0037C7.06885 30.0037 8.81925 28.218 8.81925 26.0151C8.81925 23.8122 7.06885 22.0265 4.90962 22.0265C2.7504 22.0265 1 23.8122 1 26.0151C1 28.218 2.7504 30.0037 4.90962 30.0037Z" fill="url(#paint9_linear_1_11)"/>
</g>
<mask id="mask5_1_11" style="mask-type:alpha" maskUnits="userSpaceOnUse" x="23" y="22" width="9" height="9">
<path d="M27.5525 30.0038C29.7117 30.0038 31.4621 28.218 31.4621 26.0151C31.4621 23.8123 29.7117 22.0265 27.5525 22.0265C25.3933 22.0265 23.6429 23.8123 23.6429 26.0151C23.6429 28.218 25.3933 30.0038 27.5525 30.0038Z" fill="url(#paint10_linear_1_11)"/>
</mask>
<g mask="url(#mask5_1_11)">
<path d="M27.5529 30.0037C29.7121 30.0037 31.4625 28.2179 31.4625 26.0151C31.4625 23.8122 29.7121 22.0264 27.5529 22.0264C25.3937 22.0264 23.6432 23.8122 23.6432 26.0151C23.6432 28.2179 25.3937 30.0037 27.5529 30.0037Z" fill="url(#paint11_linear_1_11)"/>
</g>
<mask id="mask6_1_11" style="mask-type:alpha" maskUnits="userSpaceOnUse" x="46" y="22" width="9" height="9">
<path d="M50.1953 30.0038C52.3546 30.0038 54.105 28.218 54.105 26.0151C54.105 23.8123 52.3546 22.0265 50.1953 22.0265C48.0361 22.0265 46.2857 23.8123 46.2857 26.0151C46.2857 28.218 48.0361 30.0038 50.1953 30.0038Z" fill="url(#paint12_linear_1_11)"/>
</mask>
<g mask="url(#mask6_1_11)">
<path d="M50.196 30.0037C52.3552 30.0037 54.1056 28.2179 54.1056 26.0151C54.1056 23.8122 52.3552 22.0264 50.196 22.0264C48.0368 22.0264 46.2864 23.8122 46.2864 26.0151C46.2864 28.2179 48.0368 30.0037 50.196 30.0037Z" fill="url(#paint13_linear_1_11)"/>
</g>
<mask id="mask7_1_11" style="mask-type:alpha" maskUnits="userSpaceOnUse" x="68" y="22" width="9" height="9">
<path d="M72.8382 30.0038C74.9974 30.0038 76.7478 28.218 76.7478 26.0151C76.7478 23.8123 74.9974 22.0265 72.8382 22.0265C70.6789 22.0265 68.9285 23.8123 68.9285 26.0151C68.9285 28.218 70.6789 30.0038 72.8382 30.0038Z" fill="url(#paint14_linear_1_11)"/>
</mask>
<g mask="url(#mask7_1_11)">
<path d="M72.8388 30.0037C74.998 30.0037 76.7484 28.2179 76.7484 26.0151C76.7484 23.8122 74.998 22.0264 72.8388 22.0264C70.6795 22.0264 68.9291 23.8122 68.9291 26.0151C68.9291 28.2179 70.6795 30.0037 72.8388 30.0037Z" fill="url(#paint15_linear_1_11)"/>
</g>
<mask id="mask8_1_11" style="mask-type:alpha" maskUnits="userSpaceOnUse" x="1" y="42" width="8" height="8">
<path d="M4.90962 49.9887C7.06885 49.9887 8.81925 48.2029 8.81925 46C8.81925 43.7971 7.06885 42.0113 4.90962 42.0113C2.7504 42.0113 1 43.7971 1 46C1 48.2029 2.7504 49.9887 4.90962 49.9887Z" fill="url(#paint16_linear_1_11)"/>
</mask>
<g mask="url(#mask8_1_11)">
<path d="M4.90962 49.9888C7.06885 49.9888 8.81925 48.203 8.81925 46.0001C8.81925 43.7972 7.06885 42.0114 4.90962 42.0114C2.7504 42.0114 1 43.7972 1 46.0001C1 48.203 2.7504 49.9888 4.90962 49.9888Z" fill="url(#paint17_linear_1_11)"/>
</g>
<mask id="mask9_1_11" style="mask-type:alpha" maskUnits="userSpaceOnUse" x="23" y="42" width="9" height="8">
<path d="M27.5525 49.9889C29.7117 49.9889 31.4621 48.2032 31.4621 46.0003C31.4621 43.7974 29.7117 42.0116 27.5525 42.0116C25.3933 42.0116 23.6429 43.7974 23.6429 46.0003C23.6429 48.2032 25.3933 49.9889 27.5525 49.9889Z" fill="url(#paint18_linear_1_11)"/>
</mask>
<g mask="url(#mask9_1_11)">
<path d="M27.5529 49.9888C29.7121 49.9888 31.4625 48.203 31.4625 46.0001C31.4625 43.7972 29.7121 42.0114 27.5529 42.0114C25.3937 42.0114 23.6432 43.7972 23.6432 46.0001C23.6432 48.203 25.3937 49.9888 27.5529 49.9888Z" fill="url(#paint19_linear_1_11)"/>
</g>
<mask id="mask10_1_11" style="mask-type:alpha" maskUnits="userSpaceOnUse" x="46" y="42" width="9" height="8">
<path d="M50.1953 49.9889C52.3546 49.9889 54.105 48.2032 54.105 46.0003C54.105 43.7974 52.3546 42.0116 50.1953 42.0116C48.0361 42.0116 46.2857 43.7974 46.2857 46.0003C46.2857 48.2032 48.0361 49.9889 50.1953 49.9889Z" fill="url(#paint20_linear_1_11)"/>
</mask>
<g mask="url(#mask10_1_11)">
<path d="M50.196 49.9888C52.3552 49.9888 54.1056 48.203 54.1056 46.0001C54.1056 43.7972 52.3552 42.0114 50.196 42.0114C48.0368 42.0114 46.2864 43.7972 46.2864 46.0001C46.2864 48.203 48.0368 49.9888 50.196 49.9888Z" fill="url(#paint21_linear_1_11)"/>
</g>
<mask id="mask11_1_11" style="mask-type:alpha" maskUnits="userSpaceOnUse" x="68" y="42" width="9" height="8">
<path d="M72.8382 49.9889C74.9974 49.9889 76.7478 48.2032 76.7478 46.0003C76.7478 43.7974 74.9974 42.0116 72.8382 42.0116C70.6789 42.0116 68.9285 43.7974 68.9285 46.0003C68.9285 48.2032 70.6789 49.9889 72.8382 49.9889Z" fill="url(#paint22_linear_1_11)"/>
</mask>
<g mask="url(#mask11_1_11)">
<path d="M72.8388 49.9888C74.998 49.9888 76.7484 48.203 76.7484 46.0001C76.7484 43.7972 74.998 42.0114 72.8388 42.0114C70.6795 42.0114 68.9291 43.7972 68.9291 46.0001C68.9291 48.203 70.6795 49.9888 72.8388 49.9888Z" fill="url(#paint23_linear_1_11)"/>
</g>
<mask id="mask12_1_11" style="mask-type:alpha" maskUnits="userSpaceOnUse" x="1" y="62" width="8" height="9">
<path d="M4.90962 70.0155C7.06885 70.0155 8.81925 68.2296 8.81925 66.0268C8.81925 63.8239 7.06885 62.0381 4.90962 62.0381C2.7504 62.0381 1 63.8239 1 66.0268C1 68.2296 2.7504 70.0155 4.90962 70.0155Z" fill="url(#paint24_linear_1_11)"/>
</mask>
<g mask="url(#mask12_1_11)">
<path d="M4.90962 70.0152C7.06885 70.0152 8.81925 68.2294 8.81925 66.0265C8.81925 63.8236 7.06885 62.0379 4.90962 62.0379C2.7504 62.0379 1 63.8236 1 66.0265C1 68.2294 2.7504 70.0152 4.90962 70.0152Z" fill="url(#paint25_linear_1_11)"/>
</g>
<mask id="mask13_1_11" style="mask-type:alpha" maskUnits="userSpaceOnUse" x="23" y="62" width="9" height="9">
<path d="M27.5525 70.0155C29.7117 70.0155 31.4621 68.2296 31.4621 66.0268C31.4621 63.8239 29.7117 62.0381 27.5525 62.0381C25.3933 62.0381 23.6429 63.8239 23.6429 66.0268C23.6429 68.2296 25.3933 70.0155 27.5525 70.0155Z" fill="url(#paint26_linear_1_11)"/>
</mask>
<g mask="url(#mask13_1_11)">
<path d="M27.5529 70.0152C29.7121 70.0152 31.4625 68.2294 31.4625 66.0265C31.4625 63.8236 29.7121 62.0379 27.5529 62.0379C25.3937 62.0379 23.6432 63.8236 23.6432 66.0265C23.6432 68.2294 25.3937 70.0152 27.5529 70.0152Z" fill="url(#paint27_linear_1_11)"/>
</g>
<mask id="mask14_1_11" style="mask-type:alpha" maskUnits="userSpaceOnUse" x="46" y="62" width="9" height="9">
<path d="M50.1953 70.0155C52.3546 70.0155 54.105 68.2296 54.105 66.0268C54.105 63.8239 52.3546 62.0381 50.1953 62.0381C48.0361 62.0381 46.2857 63.8239 46.2857 66.0268C46.2857 68.2296 48.0361 70.0155 50.1953 70.0155Z" fill="url(#paint28_linear_1_11)"/>
</mask>
<g mask="url(#mask14_1_11)">
<path d="M50.196 70.0152C52.3552 70.0152 54.1056 68.2294 54.1056 66.0265C54.1056 63.8236 52.3552 62.0379 50.196 62.0379C48.0368 62.0379 46.2864 63.8236 46.2864 66.0265C46.2864 68.2294 48.0368 70.0152 50.196 70.0152Z" fill="url(#paint29_linear_1_11)"/>
</g>
<mask id="mask15_1_11" style="mask-type:alpha" maskUnits="userSpaceOnUse" x="68" y="62" width="9" height="9">
<path d="M72.8382 70.0155C74.9974 70.0155 76.7478 68.2296 76.7478 66.0268C76.7478 63.8239 74.9974 62.0381 72.8382 62.0381C70.6789 62.0381 68.9285 63.8239 68.9285 66.0268C68.9285 68.2296 70.6789 70.0155 72.8382 70.0155Z" fill="url(#paint30_linear_1_11)"/>
</mask>
<g mask="url(#mask15_1_11)">
<path d="M72.8388 70.0152C74.998 70.0152 76.7484 68.2294 76.7484 66.0265C76.7484 63.8236 74.998 62.0379 72.8388 62.0379C70.6795 62.0379 68.9291 63.8236 68.9291 66.0265C68.9291 68.2294 70.6795 70.0152 72.8388 70.0152Z" fill="url(#paint31_linear_1_11)"/>
</g>
</g>
<defs>
<linearGradient id="paint0_linear_1_11" x1="39.076" y1="94.4707" x2="-16.486" y2="-43.7764" gradientUnits="userSpaceOnUse">
<stop stop-color="#FFA434"/>
<stop offset="1" stop-color="#FFA434"/>
</linearGradient>
<linearGradient id="paint1_linear_1_11" x1="39.076" y1="94.4707" x2="-16.486" y2="-43.7764" gradientUnits="userSpaceOnUse">
<stop stop-color="#FFA434"/>
<stop offset="1" stop-color="#FFA434"/>
</linearGradient>
<linearGradient id="paint2_linear_1_11" x1="61.7189" y1="94.4707" x2="6.15693" y2="-43.7764" gradientUnits="userSpaceOnUse">
<stop stop-color="#FFA434"/>
<stop offset="1" stop-color="#FFA434"/>
</linearGradient>
<linearGradient id="paint3_linear_1_11" x1="61.7193" y1="94.4707" x2="6.1573" y2="-43.7764" gradientUnits="userSpaceOnUse">
<stop stop-color="#FFA434"/>
<stop offset="1" stop-color="#FFA434"/>
</linearGradient>
<linearGradient id="paint4_linear_1_11" x1="84.3617" y1="94.4707" x2="28.7998" y2="-43.7764" gradientUnits="userSpaceOnUse">
<stop stop-color="#FFA434"/>
<stop offset="1" stop-color="#FFA434"/>
</linearGradient>
<linearGradient id="paint5_linear_1_11" x1="84.3624" y1="94.4707" x2="28.8004" y2="-43.7764" gradientUnits="userSpaceOnUse">
<stop stop-color="#FFA434"/>
<stop offset="1" stop-color="#FFA434"/>
</linearGradient>
<linearGradient id="paint6_linear_1_11" x1="107.005" y1="94.4707" x2="51.4426" y2="-43.7764" gradientUnits="userSpaceOnUse">
<stop stop-color="#FFA434"/>
<stop offset="1" stop-color="#FFA434"/>
</linearGradient>
<linearGradient id="paint7_linear_1_11" x1="107.005" y1="94.4707" x2="51.4432" y2="-43.7764" gradientUnits="userSpaceOnUse">
<stop stop-color="#FFA434"/>
<stop offset="1" stop-color="#FFA434"/>
</linearGradient>
<linearGradient id="paint8_linear_1_11" x1="39.076" y1="114.496" x2="-16.4851" y2="-23.7499" gradientUnits="userSpaceOnUse">
<stop stop-color="#FFA434"/>
<stop offset="1" stop-color="#FFA434"/>
</linearGradient>
<linearGradient id="paint9_linear_1_11" x1="39.076" y1="114.496" x2="-16.4851" y2="-23.7499" gradientUnits="userSpaceOnUse">
<stop stop-color="#FFA434"/>
<stop offset="1" stop-color="#FFA434"/>
</linearGradient>
<linearGradient id="paint10_linear_1_11" x1="61.7189" y1="114.496" x2="6.15788" y2="-23.7499" gradientUnits="userSpaceOnUse">
<stop stop-color="#FFA434"/>
<stop offset="1" stop-color="#FFA434"/>
</linearGradient>
<linearGradient id="paint11_linear_1_11" x1="61.7193" y1="114.496" x2="6.15824" y2="-23.7499" gradientUnits="userSpaceOnUse">
<stop stop-color="#FFA434"/>
<stop offset="1" stop-color="#FFA434"/>
</linearGradient>
<linearGradient id="paint12_linear_1_11" x1="84.3617" y1="114.496" x2="28.8007" y2="-23.7499" gradientUnits="userSpaceOnUse">
<stop stop-color="#FFA434"/>
<stop offset="1" stop-color="#FFA434"/>
</linearGradient>
<linearGradient id="paint13_linear_1_11" x1="84.3624" y1="114.496" x2="28.8014" y2="-23.7499" gradientUnits="userSpaceOnUse">
<stop stop-color="#FFA434"/>
<stop offset="1" stop-color="#FFA434"/>
</linearGradient>
<linearGradient id="paint14_linear_1_11" x1="107.005" y1="114.496" x2="51.4435" y2="-23.7499" gradientUnits="userSpaceOnUse">
<stop stop-color="#FFA434"/>
<stop offset="1" stop-color="#FFA434"/>
</linearGradient>
<linearGradient id="paint15_linear_1_11" x1="107.005" y1="114.496" x2="51.4441" y2="-23.7499" gradientUnits="userSpaceOnUse">
<stop stop-color="#FFA434"/>
<stop offset="1" stop-color="#FFA434"/>
</linearGradient>
<linearGradient id="paint16_linear_1_11" x1="39.076" y1="134.482" x2="-16.486" y2="-3.76507" gradientUnits="userSpaceOnUse">
<stop stop-color="#FFA434"/>
<stop offset="1" stop-color="#FFA434"/>
</linearGradient>
<linearGradient id="paint17_linear_1_11" x1="39.076" y1="134.482" x2="-16.486" y2="-3.76498" gradientUnits="userSpaceOnUse">
<stop stop-color="#FFA434"/>
<stop offset="1" stop-color="#FFA434"/>
</linearGradient>
<linearGradient id="paint18_linear_1_11" x1="61.7189" y1="134.482" x2="6.15693" y2="-3.76484" gradientUnits="userSpaceOnUse">
<stop stop-color="#FFA434"/>
<stop offset="1" stop-color="#FFA434"/>
</linearGradient>
<linearGradient id="paint19_linear_1_11" x1="61.7193" y1="134.482" x2="6.1573" y2="-3.76502" gradientUnits="userSpaceOnUse">
<stop stop-color="#FFA434"/>
<stop offset="1" stop-color="#FFA434"/>
</linearGradient>
<linearGradient id="paint20_linear_1_11" x1="84.3617" y1="134.482" x2="28.7998" y2="-3.76484" gradientUnits="userSpaceOnUse">
<stop stop-color="#FFA434"/>
<stop offset="1" stop-color="#FFA434"/>
</linearGradient>
<linearGradient id="paint21_linear_1_11" x1="84.3624" y1="134.482" x2="28.8004" y2="-3.76502" gradientUnits="userSpaceOnUse">
<stop stop-color="#FFA434"/>
<stop offset="1" stop-color="#FFA434"/>
</linearGradient>
<linearGradient id="paint22_linear_1_11" x1="107.005" y1="134.482" x2="51.4426" y2="-3.76484" gradientUnits="userSpaceOnUse">
<stop stop-color="#FFA434"/>
<stop offset="1" stop-color="#FFA434"/>
</linearGradient>
<linearGradient id="paint23_linear_1_11" x1="107.005" y1="134.482" x2="51.4432" y2="-3.76502" gradientUnits="userSpaceOnUse">
<stop stop-color="#FFA434"/>
<stop offset="1" stop-color="#FFA434"/>
</linearGradient>
<linearGradient id="paint24_linear_1_11" x1="39.076" y1="154.509" x2="-16.486" y2="16.2617" gradientUnits="userSpaceOnUse">
<stop stop-color="#FFA434"/>
<stop offset="1" stop-color="#FFA434"/>
</linearGradient>
<linearGradient id="paint25_linear_1_11" x1="39.076" y1="154.509" x2="-16.486" y2="16.2615" gradientUnits="userSpaceOnUse">
<stop stop-color="#FFA434"/>
<stop offset="1" stop-color="#FFA434"/>
</linearGradient>
<linearGradient id="paint26_linear_1_11" x1="61.7189" y1="154.509" x2="6.15693" y2="16.2617" gradientUnits="userSpaceOnUse">
<stop stop-color="#FFA434"/>
<stop offset="1" stop-color="#FFA434"/>
</linearGradient>
<linearGradient id="paint27_linear_1_11" x1="61.7193" y1="154.509" x2="6.1573" y2="16.2614" gradientUnits="userSpaceOnUse">
<stop stop-color="#FFA434"/>
<stop offset="1" stop-color="#FFA434"/>
</linearGradient>
<linearGradient id="paint28_linear_1_11" x1="84.3617" y1="154.509" x2="28.7998" y2="16.2617" gradientUnits="userSpaceOnUse">
<stop stop-color="#FFA434"/>
<stop offset="1" stop-color="#FFA434"/>
</linearGradient>
<linearGradient id="paint29_linear_1_11" x1="84.3624" y1="154.509" x2="28.8004" y2="16.2614" gradientUnits="userSpaceOnUse">
<stop stop-color="#FFA434"/>
<stop offset="1" stop-color="#FFA434"/>
</linearGradient>
<linearGradient id="paint30_linear_1_11" x1="107.005" y1="154.509" x2="51.4426" y2="16.2617" gradientUnits="userSpaceOnUse">
<stop stop-color="#FFA434"/>
<stop offset="1" stop-color="#FFA434"/>
</linearGradient>
<linearGradient id="paint31_linear_1_11" x1="107.005" y1="154.509" x2="51.4432" y2="16.2614" gradientUnits="userSpaceOnUse">
<stop stop-color="#FFA434"/>
<stop offset="1" stop-color="#FFA434"/>
</linearGradient>
</defs>
</svg>
